<?xml version="1.0" encoding="UTF-8" standalone="no"?>
<!-- salama ("lightning"): a pale pink bolt on a plum-to-navy disc in a mauve frame. Rendered to PNG by icons/render.sh. -->

<svg
   version="1.1"
   x="0px"
   y="0px"
   width="86px"
   height="86px"
   viewBox="0 0 86 86"
   enable-background="new 0 0 86 86"
   xml:space="preserve"
   id="svg6"
   sodipodi:docname="harbour-salama.svg"
   inkscape:version="1.4.4 (dcaf3e7d9e, 2026-05-05)"
   xmlns:inkscape="http://www.inkscape.org/namespaces/inkscape"
   xmlns:sodipodi="http://sodipodi.sourceforge.net/DTD/sodipodi-0.dtd"
   xmlns:xlink="http://www.w3.org/1999/xlink"
   xmlns="http://www.w3.org/2000/svg"
   xmlns:svg="http://www.w3.org/2000/svg"><defs
   id="defs6"><linearGradient
   id="linearGradient13"
   inkscape:collect="always"><stop
     style="stop-color:#894e78;stop-opacity:1;"
     offset="0"
     id="stop13" /><stop
     style="stop-color:#182037;stop-opacity:1;"
     offset="0.76290357"
     id="stop14" /></linearGradient><linearGradient
   id="linearGradient13641"
   inkscape:collect="always"><stop
     style="stop-color:#dda7c3;stop-opacity:1;"
     offset="0"
     id="stop3" /><stop
     style="stop-color:#ffffff;stop-opacity:1;"
     offset="0.47396073"
     id="stop13641" /><stop
     style="stop-color:#d89ab1;stop-opacity:1;"
     offset="1"
     id="stop13642" /></linearGradient><linearGradient
   id="linearGradient28"
   x1="170"
   y1="830"
   x2="875"
   y2="700"
   gradientUnits="userSpaceOnUse"
   gradientTransform="matrix(0.90896456,0,0,1.0955574,70.998707,-72.911689)"><stop
     offset="0"
     stop-color="#28a8f3"
     id="stop27"
     style="stop-color:#28a8f3;stop-opacity:1;" /><stop
     offset="1"
     stop-color="#1dbaf0"
     id="stop28" /></linearGradient><linearGradient
   id="SVGID_1_-3"
   gradientUnits="userSpaceOnUse"
   x1="85.283096"
   y1="0.71689999"
   x2="0.71689999"
   y2="85.283096"
   gradientTransform="translate(-0.3,-0.3)">
		<stop
   offset="0.0054"
   style="stop-color:#0A2342;stop-opacity:1;"
   id="stop1-6" />
		<stop
   offset="1"
   style="stop-color:#1B4A7A;stop-opacity:1;"
   id="stop2-7" />
	</linearGradient><linearGradient
   id="linearGradient6"
   gradientUnits="userSpaceOnUse"
   x1="12.8062"
   y1="12.8066"
   x2="85.282898"
   y2="85.283302">
		<stop
   offset="0.0049"
   style="stop-color:#08C0CC"
   id="stop1-0" />
		<stop
   offset="1"
   style="stop-color:#1C8C79"
   id="stop2-9" />
	</linearGradient><linearGradient
   id="SVGID_1_-9"
   gradientUnits="userSpaceOnUse"
   x1="85.283096"
   y1="0.71689999"
   x2="0.71689999"
   y2="85.283096"
   gradientTransform="matrix(-1,0,0,1,1893.2456,231.04168)">
		<stop
   offset="0.0054"
   style="stop-color:#51EAEE"
   id="stop1-2" />
		<stop
   offset="1"
   style="stop-color:#00B4E6"
   id="stop2-0" />
	</linearGradient><linearGradient
   id="SVGID_1_-2"
   gradientUnits="userSpaceOnUse"
   x1="0.71689999"
   y1="85.283096"
   x2="85.283096"
   y2="0.71689999">
		<stop
   offset="0"
   style="stop-color:#EB424A"
   id="stop1-28" />
		<stop
   offset="1"
   style="stop-color:#FF7500"
   id="stop2-97" />
	</linearGradient><linearGradient
   id="SVGID_1_-3-7"
   gradientUnits="userSpaceOnUse"
   x1="85.283096"
   y1="0.71689999"
   x2="0.71689999"
   y2="85.283096"
   gradientTransform="translate(-0.3,-0.3)">
		<stop
   offset="0.0054"
   style="stop-color:#ec4447;stop-opacity:1;"
   id="stop1-6-5" />
		<stop
   offset="1"
   style="stop-color:#ff7501;stop-opacity:1;"
   id="stop2-7-3" />
	</linearGradient>

	<linearGradient
   id="SVGID_1_-36"
   gradientUnits="userSpaceOnUse"
   x1="12.8062"
   y1="12.8066"
   x2="85.282898"
   y2="85.283302">
		<stop
   offset="0.0049"
   style="stop-color:#08C0CC"
   id="stop1-06" />
		<stop
   offset="1"
   style="stop-color:#1C8C79"
   id="stop2-2" />
	</linearGradient>



<linearGradient
   id="bg"
   x1="140"
   y1="860"
   x2="850"
   y2="120"
   gradientUnits="userSpaceOnUse"><stop
     offset="0"
     stop-color="#0b2fbe"
     id="stop1-7" /><stop
     offset="0.55"
     stop-color="#1268e4"
     id="stop2-3" /><stop
     offset="1"
     stop-color="#22b3f0"
     id="stop3-6" /></linearGradient><linearGradient
   id="wave1"
   x1="170"
   y1="830"
   x2="875"
   y2="700"
   gradientUnits="userSpaceOnUse"
   gradientTransform="matrix(0.90896456,0,0,1.0955574,70.998707,-72.911689)"><stop
     offset="0"
     stop-color="#28a8f3"
     id="stop4-1" /><stop
     offset="1"
     stop-color="#1dbaf0"
     id="stop5" /></linearGradient><linearGradient
   id="wave2"
   x1="200"
   y1="870"
   x2="870"
   y2="780"
   gradientUnits="userSpaceOnUse"><stop
     offset="0"
     stop-color="#1664df"
     id="stop6" /><stop
     offset="1"
     stop-color="#0f46c6"
     id="stop7" /></linearGradient><linearGradient
   id="white"
   x1="0"
   y1="0"
   x2="0"
   y2="1"><stop
     offset="0"
     stop-color="#f8fcff"
     id="stop8" /><stop
     offset="1"
     stop-color="#e7f6ff"
     id="stop9" /></linearGradient><clipPath
   id="badgeClip"><path
     d="M 892 122                L 447 122                C 320 122, 212 177, 137 276                C 62 375, 39 508, 68 641                C 101 794, 199 911, 332 959                C 482 1013, 669 986, 785 900                C 887 824, 930 718, 930 592                L 930 160                Q 930 122 892 122 Z"
     id="path9" /></clipPath><linearGradient
   id="bg-6"
   x1="140"
   y1="860"
   x2="850"
   y2="120"
   gradientUnits="userSpaceOnUse"><stop
     offset="0"
     stop-color="#0b2fbe"
     id="stop1-7-2" /><stop
     offset="0.55"
     stop-color="#1268e4"
     id="stop2-3-9" /><stop
     offset="1"
     stop-color="#22b3f0"
     id="stop3-6-1" /></linearGradient><linearGradient
   id="wave2-6"
   x1="200"
   y1="870"
   x2="870"
   y2="780"
   gradientUnits="userSpaceOnUse"
   gradientTransform="translate(-1331.3017,-34.88369)"><stop
     offset="0"
     stop-color="#1664df"
     id="stop7-1" /><stop
     offset="1"
     stop-color="#0f46c6"
     id="stop10" /></linearGradient><clipPath
   clipPathUnits="userSpaceOnUse"
   id="clipPath5"><path
     d="m -439.3017,87.11631 h -445 c -127,0 -235,55 -310,154 -75,98.99999 -98,232 -69,365 33,153 131,270 264,318 150,54 337.00001,27 452.99999,-59.00001 102.00001,-75.99999 145,-181.99999 145,-307.99999 V 125.1163 q 0,-37.99999 -37.99999,-37.99999 z"
     id="path5"
     style="stroke-width:1" /></clipPath><clipPath
   clipPathUnits="userSpaceOnUse"
   id="clipPath6"><path
     d="m -439.3017,87.11631 h -445 c -127,0 -235,55 -310,154 -75,98.99999 -98,232 -69,365 33,153 131,270 264,318 150,54 337.00001,27 452.99999,-59.00001 102.00001,-75.99999 145,-181.99999 145,-307.99999 V 125.1163 q 0,-37.99999 -37.99999,-37.99999 z"
     id="path6"
     style="stroke-width:1" /></clipPath><clipPath
   clipPathUnits="userSpaceOnUse"
   id="clipPath7"><path
     d="m -439.3017,87.11631 h -445 c -127,0 -235,55 -310,154 -75,98.99999 -98,232 -69,365 33,153 131,270 264,318 150,54 337.00001,27 452.99999,-59.00001 102.00001,-75.99999 145,-181.99999 145,-307.99999 V 125.1163 q 0,-37.99999 -37.99999,-37.99999 z"
     id="path7"
     style="stroke-width:1" /></clipPath><clipPath
   clipPathUnits="userSpaceOnUse"
   id="clipPath8"><path
     d="m -439.3017,87.11631 h -445 c -127,0 -235,55 -310,154 -75,98.99999 -98,232 -69,365 33,153 131,270 264,318 150,54 337.00001,27 452.99999,-59.00001 102.00001,-75.99999 145,-181.99999 145,-307.99999 V 125.1163 q 0,-37.99999 -37.99999,-37.99999 z"
     id="path8"
     style="stroke-width:1" /></clipPath><clipPath
   clipPathUnits="userSpaceOnUse"
   id="clipPath9"><path
     d="m -439.3017,87.11631 h -445 c -127,0 -235,55 -310,154 -75,98.99999 -98,232 -69,365 33,153 131,270 264,318 150,54 337.00001,27 452.99999,-59.00001 102.00001,-75.99999 145,-181.99999 145,-307.99999 V 125.1163 q 0,-37.99999 -37.99999,-37.99999 z"
     id="path17"
     style="stroke-width:1" /></clipPath><clipPath
   clipPathUnits="userSpaceOnUse"
   id="clipPath17"><path
     d="m -439.3017,87.11631 h -445 c -127,0 -235,55 -310,154 -75,98.99999 -98,232 -69,365 33,153 131,270 264,318 150,54 337.00001,27 452.99999,-59.00001 102.00001,-75.99999 145,-181.99999 145,-307.99999 V 125.1163 q 0,-37.99999 -37.99999,-37.99999 z"
     id="path18"
     style="stroke-width:1" /></clipPath><clipPath
   clipPathUnits="userSpaceOnUse"
   id="clipPath18"><path
     d="m -439.3017,87.11631 h -445 c -127,0 -235,55 -310,154 -75,98.99999 -98,232 -69,365 33,153 131,270 264,318 150,54 337.00001,27 452.99999,-59.00001 102.00001,-75.99999 145,-181.99999 145,-307.99999 V 125.1163 q 0,-37.99999 -37.99999,-37.99999 z"
     id="path19"
     style="stroke-width:1" /></clipPath><clipPath
   clipPathUnits="userSpaceOnUse"
   id="clipPath19"><path
     d="m -439.3017,87.11631 h -445 c -127,0 -235,55 -310,154 -75,98.99999 -98,232 -69,365 33,153 131,270 264,318 150,54 337.00001,27 452.99999,-59.00001 102.00001,-75.99999 145,-181.99999 145,-307.99999 V 125.1163 q 0,-37.99999 -37.99999,-37.99999 z"
     id="path20"
     style="stroke-width:1" /></clipPath><clipPath
   clipPathUnits="userSpaceOnUse"
   id="clipPath20"><path
     d="m -439.3017,87.11631 h -445 c -127,0 -235,55 -310,154 -75,98.99999 -98,232 -69,365 33,153 131,270 264,318 150,54 337.00001,27 452.99999,-59.00001 102.00001,-75.99999 145,-181.99999 145,-307.99999 V 125.1163 q 0,-37.99999 -37.99999,-37.99999 z"
     id="path21"
     style="stroke-width:1" /></clipPath><linearGradient
   inkscape:collect="always"
   xlink:href="#SVGID_1_-6"
   id="linearGradient27"
   gradientUnits="userSpaceOnUse"
   gradientTransform="matrix(-1,0,0,1,1432.9497,-52.591569)"
   x1="85.282898"
   y1="0.71719998"
   x2="12.8066"
   y2="73.193497" /><radialGradient
   id="SVGID_1_"
   cx="43.227402"
   cy="43.2243"
   r="42.7486"
   gradientTransform="matrix(0.9977,0,0,0.9977,-15.805311,-0.1249)"
   gradientUnits="userSpaceOnUse">
		<stop
   offset="0"
   style="stop-color:#7B7B7D"
   id="stop1" />
		<stop
   offset="1"
   style="stop-color:#DADADA"
   id="stop2" />
	</radialGradient><linearGradient
   id="SVGID_2_"
   gradientUnits="userSpaceOnUse"
   x1="10"
   y1="19"
   x2="86"
   y2="19">
		<stop
   offset="0"
   style="stop-color:#FF4747"
   id="stop4" />
		<stop
   offset="1"
   style="stop-color:#FF9666"
   id="stop5-3" />
	</linearGradient><radialGradient
   id="SVGID_1_-0"
   cx="43.227402"
   cy="43.2243"
   r="42.7486"
   gradientTransform="matrix(0.9977,0,0,0.9977,-105.09956,-0.31963878)"
   gradientUnits="userSpaceOnUse">
		<stop
   offset="0"
   style="stop-color:#7B7B7D"
   id="stop1-9" />
		<stop
   offset="1"
   style="stop-color:#DADADA"
   id="stop2-36" />
	</radialGradient>

	<radialGradient
   id="SVGID_1_-361"
   cx="43.227402"
   cy="43.2243"
   r="42.7486"
   gradientTransform="matrix(0.9977,0,0,0.9977,-19.428315,0.55349465)"
   gradientUnits="userSpaceOnUse">
		<stop
   offset="0"
   style="stop-color:#7B7B7D"
   id="stop1-29" />
		<stop
   offset="1"
   style="stop-color:#DADADA"
   id="stop2-31" />
	</radialGradient><filter
   style="color-interpolation-filters:sRGB;"
   inkscape:label="Drop Shadow"
   id="filter13641"
   x="-0.24379955"
   y="-0.13120926"
   width="1.4875991"
   height="1.2624185"><feFlood
     result="flood"
     in="SourceGraphic"
     flood-opacity="0.498039"
     flood-color="rgb(0,0,0)"
     id="feFlood13640" /><feGaussianBlur
     result="blur"
     in="SourceGraphic"
     stdDeviation="3.000000"
     id="feGaussianBlur13640" /><feOffset
     result="offset"
     in="blur"
     dx="-0.000000"
     dy="0.000000"
     id="feOffset13640" /><feComposite
     result="comp1"
     operator="in"
     in="flood"
     in2="offset"
     id="feComposite13640" /><feComposite
     result="comp2"
     operator="over"
     in="SourceGraphic"
     in2="comp1"
     id="feComposite13641" /></filter><linearGradient
   inkscape:collect="always"
   xlink:href="#linearGradient13641"
   id="linearGradient13642"
   x1="67.815788"
   y1="46.752373"
   x2="24.963472"
   y2="35.396709"
   gradientUnits="userSpaceOnUse" /><filter
   style="color-interpolation-filters:sRGB;"
   inkscape:label="Drop Shadow"
   id="filter13"
   x="-0.14021297"
   y="-0.14020867"
   width="1.280426"
   height="1.2804174"><feFlood
     result="flood"
     in="SourceGraphic"
     flood-opacity="0.250980"
     flood-color="rgb(0,0,0)"
     id="feFlood12" /><feGaussianBlur
     result="blur"
     in="SourceGraphic"
     stdDeviation="1.800000"
     id="feGaussianBlur12" /><feOffset
     result="offset"
     in="blur"
     dx="-0.000000"
     dy="0.000000"
     id="feOffset12" /><feComposite
     result="comp1"
     operator="out"
     in="flood"
     in2="offset"
     id="feComposite12" /><feComposite
     result="comp2"
     operator="atop"
     in="comp1"
     in2="SourceGraphic"
     id="feComposite13" /></filter><radialGradient
   inkscape:collect="always"
   xlink:href="#linearGradient13"
   id="radialGradient14"
   cx="42.794259"
   cy="42.952084"
   fx="42.794259"
   fy="42.952084"
   r="31.8375"
   gradientTransform="matrix(1.0996753,0,0,1.0996926,-4.2655331,-4.2820058)"
   gradientUnits="userSpaceOnUse" /><filter
   style="color-interpolation-filters:sRGB;"
   inkscape:label="Drop Shadow"
   id="filter16"
   x="-0.070106485"
   y="-0.070104336"
   width="1.140213"
   height="1.1402087"><feFlood
     result="flood"
     in="SourceGraphic"
     flood-opacity="0.250980"
     flood-color="rgb(0,0,0)"
     id="feFlood15" /><feGaussianBlur
     result="blur"
     in="SourceGraphic"
     stdDeviation="1.800000"
     id="feGaussianBlur15" /><feOffset
     result="offset"
     in="blur"
     dx="-0.000000"
     dy="0.000000"
     id="feOffset15" /><feComposite
     result="comp1"
     operator="in"
     in="flood"
     in2="offset"
     id="feComposite15" /><feComposite
     result="comp2"
     operator="over"
     in="SourceGraphic"
     in2="comp1"
     id="feComposite16" /></filter></defs><sodipodi:namedview
   id="namedview6"
   pagecolor="#ffffff"
   bordercolor="#000000"
   borderopacity="0.25"
   inkscape:showpageshadow="2"
   inkscape:pageopacity="0.0"
   inkscape:pagecheckerboard="0"
   inkscape:deskcolor="#d1d1d1"
   inkscape:zoom="2.8983094"
   inkscape:cx="-14.146178"
   inkscape:cy="29.844985"
   inkscape:window-width="1280"
   inkscape:window-height="734"
   inkscape:window-x="0"
   inkscape:window-y="0"
   inkscape:window-maximized="1"
   inkscape:current-layer="svg6"
   showguides="false" />

<path
   id="path26"
   style="display:inline;fill:url(#linearGradient27);filter:url(#filter13)"
   inkscape:label="Background"
   d="m 1389.9478,-52.291441 c 23.584,0 42.7011,19.116219 42.7011,42.699219 0,23.582 -19.1162,42.701172 -42.6992,42.701172 -23.583,0 -42.6992,-19.119172 -42.6992,-42.701172 v -41.275391 c 0,-0.786 0.6359,-1.423828 1.4219,-1.423828 z m -0.1856,11.048828 h -31.8359 v 31.837891 c 0,17.556 14.2809,31.837891 31.8359,31.837891 17.556,0 31.8379,-14.281891 31.8379,-31.837891 0,-17.556 -14.2819,-31.837891 -31.8379,-31.837891 z"
   transform="matrix(-1,0,0,1,1432.996,52.776883)" /><g
   id="g1"
   transform="matrix(1.0333214,0,0,1.0333214,-0.6106,-0.39468894)"
   inkscape:label="Fill"
   style="filter:url(#filter13)"><g
     id="Layer_1-3"
     style="display:none"
     sodipodi:insensitive="true">
	<linearGradient
   id="SVGID_1_-6"
   gradientUnits="userSpaceOnUse"
   x1="85.282898"
   y1="0.71719998"
   x2="12.8066"
   y2="73.193497">
	<stop
   offset="0"
   style="stop-color:#c37698;stop-opacity:1;"
   id="stop2-35" />
		<stop
   offset="1"
   style="stop-color:#463760;stop-opacity:1;"
   id="stop1-75" />
		</linearGradient>



</g><path
     id="path3"
     style="display:inline;fill:url(#radialGradient14);stroke-width:1.09967;filter:url(#filter16)"
     inkscape:label="Inner background"
     d="M 42.431111 11.545145 C 25.441237 11.545145 11.619893 25.366489 11.619893 42.356363 C 11.619893 59.346236 25.441237 73.16758 42.431111 73.16758 C 59.420017 73.16758 73.240439 59.346236 73.240439 42.356363 L 73.240439 11.545145 L 42.431111 11.545145 z " /></g><path
   style="opacity:1;fill:url(#linearGradient13642);fill-opacity:1;stroke-width:0.0743598;filter:url(#filter13641)"
   d="m 56.241545,14.05016 c 0,0 -0.543392,0.377734 -1.162202,0.79027 -0.618808,0.412541 -10.478498,11.716118 -10.478498,11.716118 l -10.230973,12.541195 -4.04289,5.404264 c 0,0 -0.701311,1.567648 0.94884,1.361381 1.650158,-0.206269 10.437248,-0.783824 10.437248,-0.783824 0,0 0.536301,-0.08251 0.288777,0.453795 -0.247523,0.536296 -9.034612,23.390977 -9.034612,23.390977 L 57.34831,40.046581 59.493514,37.200062 c 0,0 0.701318,-1.031345 -0.412539,-1.361379 -1.113856,-0.330029 -10.80853,0.783823 -10.80853,0.783823 0,0 -0.618809,0.206274 -0.165016,-1.072598 0.453793,-1.278873 8.134116,-21.499748 8.134116,-21.499748 z"
   transform="matrix(0.93986534,0,0,0.93986534,2.7027621,2.8722306)"
   id="path13639" />
</svg>
